<svg width="128" height="56" viewBox="0 0 128 56" fill="none" xmlns="http://www.w3.org/2000/svg">
<g filter="url(#filter0_d_8_16)">
<rect x="4" width="120" height="48" rx="12" fill="#F7E5D8"/>
<path d="M59.344 27.224H63.024V29H57.104V17.832H59.344V27.224ZM69.6318 29.112C68.5864 29.112 67.6264 28.8667 66.7518 28.376C65.8771 27.8853 65.1838 27.208 64.6718 26.344C64.1598 25.4693 63.9038 24.4827 63.9038 23.384C63.9038 22.296 64.1598 21.32 64.6718 20.456C65.1838 19.5813 65.8771 18.8987 66.7518 18.408C67.6264 17.9173 68.5864 17.672 69.6318 17.672C70.6878 17.672 71.6478 17.9173 72.5118 18.408C73.3864 18.8987 74.0744 19.5813 74.5758 20.456C75.0878 21.32 75.3438 22.296 75.3438 23.384C75.3438 24.4827 75.0878 25.4693 74.5758 26.344C74.0744 27.208 73.3864 27.8853 72.5118 28.376C71.6371 28.8667 70.6771 29.112 69.6318 29.112ZM69.6318 27.112C70.3038 27.112 70.8958 26.9627 71.4078 26.664C71.9198 26.3547 72.3198 25.9173 72.6078 25.352C72.8958 24.7867 73.0398 24.1307 73.0398 23.384C73.0398 22.6373 72.8958 21.9867 72.6078 21.432C72.3198 20.8667 71.9198 20.4347 71.4078 20.136C70.8958 19.8373 70.3038 19.688 69.6318 19.688C68.9598 19.688 68.3624 19.8373 67.8398 20.136C67.3278 20.4347 66.9278 20.8667 66.6398 21.432C66.3518 21.9867 66.2078 22.6373 66.2078 23.384C66.2078 24.1307 66.3518 24.7867 66.6398 25.352C66.9278 25.9173 67.3278 26.3547 67.8398 26.664C68.3624 26.9627 68.9598 27.112 69.6318 27.112ZM84.7863 21.192C84.5303 20.7227 84.1783 20.3653 83.7303 20.12C83.2823 19.8747 82.7596 19.752 82.1623 19.752C81.5009 19.752 80.9143 19.9013 80.4023 20.2C79.8903 20.4987 79.4903 20.9253 79.2023 21.48C78.9143 22.0347 78.7703 22.6747 78.7703 23.4C78.7703 24.1467 78.9143 24.7973 79.2023 25.352C79.5009 25.9067 79.9116 26.3333 80.4343 26.632C80.9569 26.9307 81.5649 27.08 82.2583 27.08C83.1116 27.08 83.8103 26.856 84.3542 26.408C84.8983 25.9493 85.2556 25.3147 85.4263 24.504H81.5863V22.792H87.6343V24.744C87.4849 25.5227 87.1649 26.2427 86.6743 26.904C86.1836 27.5653 85.5489 28.0987 84.7703 28.504C84.0023 28.8987 83.1383 29.096 82.1783 29.096C81.1009 29.096 80.1249 28.856 79.2503 28.376C78.3863 27.8853 77.7036 27.208 77.2023 26.344C76.7116 25.48 76.4663 24.4987 76.4663 23.4C76.4663 22.3013 76.7116 21.32 77.2023 20.456C77.7036 19.5813 78.3863 18.904 79.2503 18.424C80.1249 17.9333 81.0956 17.688 82.1623 17.688C83.4209 17.688 84.5143 17.9973 85.4423 18.616C86.3703 19.224 87.0103 20.0827 87.3623 21.192H84.7863ZM91.5315 17.832V29H89.2915V17.832H91.5315ZM103.297 29H101.057L95.9846 21.336V29H93.7446V17.816H95.9846L101.057 25.496V17.816H103.297V29Z" fill="#F07807"/>
<path d="M35.5 25.0625C39.3818 25.0625 42.5312 21.9131 42.5312 18.0312C42.5312 14.1494 39.3818 11 35.5 11C31.6182 11 28.4688 14.1494 28.4688 18.0312C28.4688 21.9131 31.6182 25.0625 35.5 25.0625ZM41.75 26.625H41.6844C39.955 26.625 38.2615 27.1289 36.5452 27.3418C36.2026 27.3843 35.8538 27.4062 35.5 27.4062C35.1424 27.4062 34.7901 27.3838 34.4443 27.3404C32.7352 27.1257 31.0488 26.625 29.3263 26.625H29.25C25.7979 26.625 23 29.4229 23 32.875V33.6562C23 34.9502 24.0498 36 25.3438 36H45.6562C46.9502 36 48 34.9502 48 33.6562V32.875C48 29.4229 45.2021 26.625 41.75 26.625Z" fill="#F07807"/>
</g>
<defs>
<filter id="filter0_d_8_16" x="0" y="0" width="128" height="56" filterUnits="userSpaceOnUse" color-interpolation-filters="sRGB">
<feFlood flood-opacity="0" result="BackgroundImageFix"/>
<feColorMatrix in="SourceAlpha" type="matrix" values="0 0 0 0 0 0 0 0 0 0 0 0 0 0 0 0 0 0 127 0" result="hardAlpha"/>
<feOffset dy="4"/>
<feGaussianBlur stdDeviation="2"/>
<feComposite in2="hardAlpha" operator="out"/>
<feColorMatrix type="matrix" values="0 0 0 0 0 0 0 0 0 0 0 0 0 0 0 0 0 0 0.25 0"/>
<feBlend mode="normal" in2="BackgroundImageFix" result="effect1_dropShadow_8_16"/>
<feBlend mode="normal" in="SourceGraphic" in2="effect1_dropShadow_8_16" result="shape"/>
</filter>
</defs>
</svg>
